{"title":"Attack-on-Leningrad.2009{DvDRip.XviD}vice","uid":5377191,"size":722545880,"categoryP":"video","categoryS":"movies","magnet":"?xt=urn:btih:ef4d221f6f266628e8f9a66e50782d85f2e72b34&amp;dn=Attack-on-Leningrad.2009%7BDvDRip.XviD%7Dvice&amp;tr=udp%3A%2F%2Ftracker.openbittorrent.com%3A80&amp;tr=udp%3A%2F%2Fopen.demonii.com%3A1337&amp;tr=udp%3A%2F%2Ftracker.coppersurfer.tk%3A6969&amp;tr=udp%3A%2F%2Fexodus.desync.com%3A6969","seeders":1,"leechers":0,"uploader":"vicerock","files":-1,"time":1266609914,"description":"ATTACK ON LENINGRAD 2009 DVDRip XviD\n\nThe audio on this movie is English,Russian and German the english subtitles are hardcoded \n\nFormat                           : AVI\nFormat/Info                      : Audio Video Interleave\nFile size                        : 689 MiB\nDuration                         : 1h 46mn\nOverall bit rate                 : 908 Kbps\nWriting application              : MEncoder SVN-r29352(20090610-gcc4.3.3)\nWriting library                  : MPlayer\n\nVideo\nID                               : 0\nFormat                           : MPEG-4 Visual\nFormat profile                   : AdvancedSimple@L5\nFormat settings, BVOP            : Yes\nFormat settings, QPel            : No\nFormat settings, GMC             : No warppoints\nFormat settings, Matrix          : Default (H.263)\nCodec ID                         : XVID\nCodec ID/Hint                    : XviD\nDuration                         : 1h 46mn\nBit rate                         : 767 Kbps\nWidth                            : 640 pixels\nHeight                           : 360 pixels\nDisplay aspect ratio             : 2.35:1\nFrame rate                       : 25.000 fps\nResolution                       : 24 bits\nColorimetry                      : 4:2:0\nScan type                        : Progressive\nBits/(Pixel*Frame)               : 0.133\nStream size                      : 583 MiB (85%)\nWriting library                  : XviD 1.2.1 (UTC 2008-12-04)\n\nAudio\nID                               : 1\nFormat                           : MPEG Audio\nFormat version                   : Version 1\nFormat profile                   : Layer 3\nCodec ID                         : 55\nCodec ID/Hint                    : MP3\nDuration                         : 1h 46mn\nBit rate mode                    : Constant\nBit rate                         : 128 Kbps\nChannel(s)                       : 2 channels\nSampling rate                    : 44.1 KHz\nResolution                       : 16 bits\nVideo delay                      : 40ms\nStream size                      : 97.2 MiB (14%)\nAlignment                        : Aligned on interleaves\nInterleave, duration             : 26 ms (0.65 video frame)\nInterleave, preload duration     : 522 ms &lt;a href=&quot;\nhttp://www.imdb.com/title/tt0432314/&quot; rel=&quot;nofollow&quot; target=&quot;_NEW&quot;&gt;\nhttp://www.imdb.com/title/tt0432314/&lt;/a&gt;\n\nA soaring, action-packed journey of heroism and sacrifice as one crusading journalist desperately fights to uncover the horrors buried within the infamous Nazi siege of Leningrad in the savage winter of 1941. An epic story is inspired by true events, featuring an acclaimed, award-winning cast, this is the tale of the tragedy that befell Leningrad: at over 800 days, it was one of the longest and most destructive sieges in history. \n\nPLEASE SEED AND ENJOY THANKS\n\nscreens &lt;a href=&quot;\nhttp://img411.imageshack.us/img411/2882/aolxvidviceavithumbs201.jpg&quot; rel=&quot;nofollow&quot; target=&quot;_NEW&quot;&gt;\nhttp://img411.imageshack.us/img411/2882/aolxvidviceavithumbs201.jpg&lt;/a&gt;\n\n","torrent":{"xt":"urn:btih:ef4d221f6f266628e8f9a66e50782d85f2e72b34","amp;dn":"Attack-on-Leningrad.2009%7BDvDRip.XviD%7Dvice","amp;tr":["udp%3A%2F%2Ftracker.openbittorrent.com%3A80","udp%3A%2F%2Fopen.demonii.com%3A1337","udp%3A%2F%2Ftracker.coppersurfer.tk%3A6969","udp%3A%2F%2Fexodus.desync.com%3A6969"],"infoHash":"ef4d221f6f266628e8f9a66e50782d85f2e72b34","infoHashBuffer":{"type":"Buffer","data":[239,77,34,31,111,38,102,40,232,249,166,110,80,120,45,133,242,231,43,52]},"announce":[],"urlList":[]}}